<mxfile host="app.diagrams.net" agent="Mozilla/5.0 (Windows NT 10.0; Win64; x64) AppleWebKit/537.36 (KHTML, like Gecko) Chrome/128.0.0.0 Safari/537.36 OPR/114.0.0.0 (Edition Yx 05)" version="25.0.3">
  <diagram name="Страница — 1" id="VG2lHUbz7iUZuj68SUJr">
    <mxGraphModel dx="1150" dy="623" grid="1" gridSize="10" guides="1" tooltips="1" connect="1" arrows="1" fold="1" page="1" pageScale="1" pageWidth="827" pageHeight="1169" math="0" shadow="0">
      <root>
        <mxCell id="0" />
        <mxCell id="1" parent="0" />
        <mxCell id="s0PnkM0nrARVqGrRP4Iq-1" value="Employee" style="swimlane;fontStyle=0;childLayout=stackLayout;horizontal=1;startSize=30;horizontalStack=0;resizeParent=1;resizeParentMax=0;resizeLast=0;collapsible=1;marginBottom=0;whiteSpace=wrap;html=1;" vertex="1" parent="1">
          <mxGeometry x="320" y="80" width="240" height="120" as="geometry" />
        </mxCell>
        <mxCell id="s0PnkM0nrARVqGrRP4Iq-3" value="# salary: int" style="text;strokeColor=none;fillColor=none;align=left;verticalAlign=middle;spacingLeft=4;spacingRight=4;overflow=hidden;points=[[0,0.5],[1,0.5]];portConstraint=eastwest;rotatable=0;whiteSpace=wrap;html=1;" vertex="1" parent="s0PnkM0nrARVqGrRP4Iq-1">
          <mxGeometry y="30" width="240" height="30" as="geometry" />
        </mxCell>
        <mxCell id="s0PnkM0nrARVqGrRP4Iq-2" value="# getSalary(): void" style="text;strokeColor=none;fillColor=none;align=left;verticalAlign=middle;spacingLeft=4;spacingRight=4;overflow=hidden;points=[[0,0.5],[1,0.5]];portConstraint=eastwest;rotatable=0;whiteSpace=wrap;html=1;" vertex="1" parent="s0PnkM0nrARVqGrRP4Iq-1">
          <mxGeometry y="60" width="240" height="30" as="geometry" />
        </mxCell>
        <mxCell id="s0PnkM0nrARVqGrRP4Iq-4" value="&amp;nbsp;" style="text;strokeColor=none;fillColor=none;align=left;verticalAlign=middle;spacingLeft=4;spacingRight=4;overflow=hidden;points=[[0,0.5],[1,0.5]];portConstraint=eastwest;rotatable=0;whiteSpace=wrap;html=1;" vertex="1" parent="s0PnkM0nrARVqGrRP4Iq-1">
          <mxGeometry y="90" width="240" height="30" as="geometry" />
        </mxCell>
        <mxCell id="s0PnkM0nrARVqGrRP4Iq-6" value="Designer" style="swimlane;fontStyle=0;childLayout=stackLayout;horizontal=1;startSize=30;horizontalStack=0;resizeParent=1;resizeParentMax=0;resizeLast=0;collapsible=1;marginBottom=0;whiteSpace=wrap;html=1;" vertex="1" parent="1">
          <mxGeometry x="40" y="240" width="240" height="120" as="geometry" />
        </mxCell>
        <mxCell id="s0PnkM0nrARVqGrRP4Iq-8" value="+ salary: int" style="text;strokeColor=none;fillColor=none;align=left;verticalAlign=middle;spacingLeft=4;spacingRight=4;overflow=hidden;points=[[0,0.5],[1,0.5]];portConstraint=eastwest;rotatable=0;whiteSpace=wrap;html=1;" vertex="1" parent="s0PnkM0nrARVqGrRP4Iq-6">
          <mxGeometry y="30" width="240" height="30" as="geometry" />
        </mxCell>
        <mxCell id="s0PnkM0nrARVqGrRP4Iq-7" value="+ getSalary(): void" style="text;strokeColor=none;fillColor=none;align=left;verticalAlign=middle;spacingLeft=4;spacingRight=4;overflow=hidden;points=[[0,0.5],[1,0.5]];portConstraint=eastwest;rotatable=0;whiteSpace=wrap;html=1;" vertex="1" parent="s0PnkM0nrARVqGrRP4Iq-6">
          <mxGeometry y="60" width="240" height="30" as="geometry" />
        </mxCell>
        <mxCell id="s0PnkM0nrARVqGrRP4Iq-9" value="+ Designer(salary: int)&amp;nbsp;" style="text;strokeColor=none;fillColor=none;align=left;verticalAlign=middle;spacingLeft=4;spacingRight=4;overflow=hidden;points=[[0,0.5],[1,0.5]];portConstraint=eastwest;rotatable=0;whiteSpace=wrap;html=1;" vertex="1" parent="s0PnkM0nrARVqGrRP4Iq-6">
          <mxGeometry y="90" width="240" height="30" as="geometry" />
        </mxCell>
        <mxCell id="s0PnkM0nrARVqGrRP4Iq-10" value="Developer" style="swimlane;fontStyle=0;childLayout=stackLayout;horizontal=1;startSize=30;horizontalStack=0;resizeParent=1;resizeParentMax=0;resizeLast=0;collapsible=1;marginBottom=0;whiteSpace=wrap;html=1;" vertex="1" parent="1">
          <mxGeometry x="600" y="240" width="240" height="120" as="geometry" />
        </mxCell>
        <mxCell id="s0PnkM0nrARVqGrRP4Iq-12" value="+ salary: int" style="text;strokeColor=none;fillColor=none;align=left;verticalAlign=middle;spacingLeft=4;spacingRight=4;overflow=hidden;points=[[0,0.5],[1,0.5]];portConstraint=eastwest;rotatable=0;whiteSpace=wrap;html=1;" vertex="1" parent="s0PnkM0nrARVqGrRP4Iq-10">
          <mxGeometry y="30" width="240" height="30" as="geometry" />
        </mxCell>
        <mxCell id="s0PnkM0nrARVqGrRP4Iq-11" value="+ getSalary(): void" style="text;strokeColor=none;fillColor=none;align=left;verticalAlign=middle;spacingLeft=4;spacingRight=4;overflow=hidden;points=[[0,0.5],[1,0.5]];portConstraint=eastwest;rotatable=0;whiteSpace=wrap;html=1;" vertex="1" parent="s0PnkM0nrARVqGrRP4Iq-10">
          <mxGeometry y="60" width="240" height="30" as="geometry" />
        </mxCell>
        <mxCell id="s0PnkM0nrARVqGrRP4Iq-13" value="+ Developer(salary: int)" style="text;strokeColor=none;fillColor=none;align=left;verticalAlign=middle;spacingLeft=4;spacingRight=4;overflow=hidden;points=[[0,0.5],[1,0.5]];portConstraint=eastwest;rotatable=0;whiteSpace=wrap;html=1;" vertex="1" parent="s0PnkM0nrARVqGrRP4Iq-10">
          <mxGeometry y="90" width="240" height="30" as="geometry" />
        </mxCell>
        <mxCell id="s0PnkM0nrARVqGrRP4Iq-14" value="Manager" style="swimlane;fontStyle=0;childLayout=stackLayout;horizontal=1;startSize=30;horizontalStack=0;resizeParent=1;resizeParentMax=0;resizeLast=0;collapsible=1;marginBottom=0;whiteSpace=wrap;html=1;" vertex="1" parent="1">
          <mxGeometry x="321" y="450" width="239" height="150" as="geometry" />
        </mxCell>
        <mxCell id="s0PnkM0nrARVqGrRP4Iq-16" value="+ salary: int" style="text;strokeColor=none;fillColor=none;align=left;verticalAlign=middle;spacingLeft=4;spacingRight=4;overflow=hidden;points=[[0,0.5],[1,0.5]];portConstraint=eastwest;rotatable=0;whiteSpace=wrap;html=1;" vertex="1" parent="s0PnkM0nrARVqGrRP4Iq-14">
          <mxGeometry y="30" width="239" height="30" as="geometry" />
        </mxCell>
        <mxCell id="s0PnkM0nrARVqGrRP4Iq-15" value="+ getSalary(): void" style="text;strokeColor=none;fillColor=none;align=left;verticalAlign=middle;spacingLeft=4;spacingRight=4;overflow=hidden;points=[[0,0.5],[1,0.5]];portConstraint=eastwest;rotatable=0;whiteSpace=wrap;html=1;" vertex="1" parent="s0PnkM0nrARVqGrRP4Iq-14">
          <mxGeometry y="60" width="239" height="30" as="geometry" />
        </mxCell>
        <mxCell id="s0PnkM0nrARVqGrRP4Iq-29" value="+ assignTask(): void" style="text;strokeColor=none;fillColor=none;align=left;verticalAlign=middle;spacingLeft=4;spacingRight=4;overflow=hidden;points=[[0,0.5],[1,0.5]];portConstraint=eastwest;rotatable=0;whiteSpace=wrap;html=1;" vertex="1" parent="s0PnkM0nrARVqGrRP4Iq-14">
          <mxGeometry y="90" width="239" height="30" as="geometry" />
        </mxCell>
        <mxCell id="s0PnkM0nrARVqGrRP4Iq-30" value="+ Manager(salary: int)" style="text;strokeColor=none;fillColor=none;align=left;verticalAlign=middle;spacingLeft=4;spacingRight=4;overflow=hidden;points=[[0,0.5],[1,0.5]];portConstraint=eastwest;rotatable=0;whiteSpace=wrap;html=1;" vertex="1" parent="s0PnkM0nrARVqGrRP4Iq-14">
          <mxGeometry y="120" width="239" height="30" as="geometry" />
        </mxCell>
        <mxCell id="s0PnkM0nrARVqGrRP4Iq-22" value="&amp;lt;&amp;lt;Interface&amp;gt;&amp;gt;&lt;div&gt;ProjectManager&lt;/div&gt;" style="swimlane;fontStyle=0;childLayout=stackLayout;horizontal=1;startSize=30;horizontalStack=0;resizeParent=1;resizeParentMax=0;resizeLast=0;collapsible=1;marginBottom=0;whiteSpace=wrap;html=1;" vertex="1" parent="1">
          <mxGeometry x="720" y="450" width="239" height="120" as="geometry" />
        </mxCell>
        <mxCell id="s0PnkM0nrARVqGrRP4Iq-23" value="+ assignTask(): void" style="text;strokeColor=none;fillColor=none;align=left;verticalAlign=middle;spacingLeft=4;spacingRight=4;overflow=hidden;points=[[0,0.5],[1,0.5]];portConstraint=eastwest;rotatable=0;whiteSpace=wrap;html=1;" vertex="1" parent="s0PnkM0nrARVqGrRP4Iq-22">
          <mxGeometry y="30" width="239" height="30" as="geometry" />
        </mxCell>
        <mxCell id="s0PnkM0nrARVqGrRP4Iq-24" value="&amp;nbsp;" style="text;strokeColor=none;fillColor=none;align=left;verticalAlign=middle;spacingLeft=4;spacingRight=4;overflow=hidden;points=[[0,0.5],[1,0.5]];portConstraint=eastwest;rotatable=0;whiteSpace=wrap;html=1;" vertex="1" parent="s0PnkM0nrARVqGrRP4Iq-22">
          <mxGeometry y="60" width="239" height="30" as="geometry" />
        </mxCell>
        <mxCell id="s0PnkM0nrARVqGrRP4Iq-25" value="&amp;nbsp;" style="text;strokeColor=none;fillColor=none;align=left;verticalAlign=middle;spacingLeft=4;spacingRight=4;overflow=hidden;points=[[0,0.5],[1,0.5]];portConstraint=eastwest;rotatable=0;whiteSpace=wrap;html=1;" vertex="1" parent="s0PnkM0nrARVqGrRP4Iq-22">
          <mxGeometry y="90" width="239" height="30" as="geometry" />
        </mxCell>
        <mxCell id="s0PnkM0nrARVqGrRP4Iq-26" value="" style="endArrow=classic;html=1;rounded=0;exitX=0.5;exitY=0;exitDx=0;exitDy=0;" edge="1" parent="1" source="s0PnkM0nrARVqGrRP4Iq-14">
          <mxGeometry width="50" height="50" relative="1" as="geometry">
            <mxPoint x="389" y="250" as="sourcePoint" />
            <mxPoint x="439" y="200" as="targetPoint" />
          </mxGeometry>
        </mxCell>
        <mxCell id="s0PnkM0nrARVqGrRP4Iq-27" value="" style="endArrow=classic;html=1;rounded=0;entryX=0;entryY=0.287;entryDx=0;entryDy=0;entryPerimeter=0;exitX=1.003;exitY=0.273;exitDx=0;exitDy=0;exitPerimeter=0;" edge="1" parent="1" source="s0PnkM0nrARVqGrRP4Iq-15" target="s0PnkM0nrARVqGrRP4Iq-24">
          <mxGeometry width="50" height="50" relative="1" as="geometry">
            <mxPoint x="410" y="460" as="sourcePoint" />
            <mxPoint x="460" y="410" as="targetPoint" />
          </mxGeometry>
        </mxCell>
        <mxCell id="s0PnkM0nrARVqGrRP4Iq-28" value="" style="endArrow=none;html=1;rounded=0;entryX=-0.003;entryY=0.326;entryDx=0;entryDy=0;entryPerimeter=0;" edge="1" parent="1" target="s0PnkM0nrARVqGrRP4Iq-11">
          <mxGeometry width="50" height="50" relative="1" as="geometry">
            <mxPoint x="280" y="310" as="sourcePoint" />
            <mxPoint x="450" y="330" as="targetPoint" />
          </mxGeometry>
        </mxCell>
      </root>
    </mxGraphModel>
  </diagram>
</mxfile>
